<?xml version="1.0" encoding="utf-8"?>
<!DOCTYPE svg PUBLIC "-//W3C//DTD SVG 1.1//EN" "http://www.w3.org/Graphics/SVG/1.1/DTD/svg11.dtd">
<svg version="1.1" id="Layer_1" xmlns="http://www.w3.org/2000/svg" xmlns:xlink="http://www.w3.org/1999/xlink" x="0px" y="0px"
	 width="100px" height="100px" viewBox="0 0 100 100" style="enable-background:new 0 0 100 100;" xml:space="preserve">
<path style="fill:#EE893F;" d="M100,94c0,3.313-2.687,6-6,6H6c-3.313,0-6-2.687-6-6V6c0-3.313,2.687-6,6-6h88c3.313,0,6,2.687,6,6
	V94z"/>
<g>
	<path style="fill:#FFFFFF;" d="M77,75.383C77.052,76.086,77,78,77,78s-1.771,0-2.5,0h-5.586c-0.678,0-1.433,0.456-1.914,0
		c0,0-0.561-1.692-0.586-2.344c-0.312-5.599-1.628-10.918-3.945-15.957c-2.318-5.039-5.332-9.414-9.043-13.125
		s-8.086-6.725-13.125-9.043c-5.039-2.317-10.358-3.646-15.957-3.984C23.692,33.521,22,33,22,33s0-1.263,0-1.914V25.5
		c0-0.729,0-2.5,0-2.5s1.822,0,2.5,0h0.117c6.822,0.339,13.353,1.901,19.59,4.688c6.236,2.787,11.777,6.615,16.621,11.484
		c4.869,4.844,8.697,10.385,11.484,16.621C75.099,62.03,76.661,68.561,77,75.383z M57,75.305C57.052,76.034,57,78,57,78
		s-1.745,0-2.5,0h-5.273C48.575,78,47,78,47,78s-0.183-1.614-0.234-2.266c-0.573-5.963-2.976-11.061-7.207-15.293
		c-4.232-4.231-9.33-6.634-15.293-7.207C23.614,53.183,22,53,22,53s0-1.575,0-2.227V45.5c0-0.755,0-2.5,0-2.5s1.822,0,2.5,0h0.195
		c4.166,0.339,8.15,1.387,11.953,3.145c3.802,1.758,7.174,4.121,10.117,7.09c2.969,2.943,5.332,6.315,7.09,10.117
		C55.613,67.154,56.661,71.139,57,75.305z M34.812,65.188C36.271,66.646,37,68.417,37,70.5c0,2.084-0.729,3.854-2.188,5.312
		C33.354,77.271,31.583,78,29.5,78c-2.084,0-3.854-0.729-5.312-2.188C22.729,74.354,22,72.584,22,70.5
		c0-2.083,0.729-3.854,2.188-5.312C25.646,63.729,27.416,63,29.5,63C31.583,63,33.354,63.729,34.812,65.188z"/>
</g>
</svg>
